<?xml version="1.0" encoding="UTF-8"?><svg xmlns="http://www.w3.org/2000/svg" viewBox="0 0 606.35 715.53"><defs><style>.c{fill:#010101;}.d{fill:#e8ab24;}.e{fill:#fff;}.f{fill:#ffe02c;}.g{fill:#fbdd99;}.h{fill:#fece33;}.i{fill:#202121;}.j{fill:#4a4a4c;}.k{fill:#d8d8d8;mix-blend-mode:multiply;}.l{isolation:isolate;}</style></defs><g class="l"><g id="a"/><g id="b"><g><path class="i" d="M220.98,553.96c7.52-.84,29.24,3.34,27.72-19.22-.16-2.42-.87-4.82-2-7.2-5.1-10.72-19.18-21.23-34.94-33.23-3.54-2.69-7.16-5.47-10.78-8.33-10.07-7.96-20.15-16.64-28.45-26.47-27.57-32.63-7.52-65.96-7.52-65.96-5.01,45.95,17.55,58.48,17.55,58.48-7.52-27.57,16.71-91.07,40.1-126.21,19.41-29.15,21.02-63.91,21.01-74.94-1.37-2.27-2.55-4.65-3.5-7.14-2.04-2.76-3.77-5.72-4.98-8.95-.52-1.38-.86-2.7-1.08-3.99-.15-.99-.25-1.95-.27-2.84,0-.04-.01-.09-.01-.13h0c-.07-9.83,8.16-16.96,16.33-22.66-4.82-.42-9.98-2.68-13.85-9.1-9.74-16.16-4.88-59.87,20.18-57.37,25.06,2.51,21.34,48.09,21.34,48.09,6.02-2.97,10.83-4.64,10.83-4.64,4.22-.34,7.51-.32,10.52,.12h0s-3.42-48.16,32.5-48.16,30.13,67.3,19.24,75.43h0c5.85,4.16,8.89,8.22,9.88,12.15,.24,.94,.33,1.87,.35,2.79,1.08,.52,1.63,1.37,1.63,3.36,0,3.81-1.79,8.49-4.61,13.38-.66,15.07,3.51,44.66,40.77,102.19,23.76,36.69,30.63,67.14,31.55,88.45,3.84-.96,7.77-1.37,11.71-1.33,10.9-24.25-9.01-80.88-9.01-80.88,21.82,24.1,22.07,73.15,21.9,82.66,9.21,2.43,17.92,7.16,24.88,13.44,17.13,15.46,10.04,25.67,10.04,25.67h0c6.24,.17,12.36,1.83,18.61,6.11,.32,.22,.58,.47,.89,.7,4.2-19.86,5.87-39.12,5.27-55.6-2.23-61.4-45.67-98.16-65.73-123.78-20.05-25.62-41.22-42.33-42.33-123.65-1.11-81.32-35.65-124.77-98.03-123.65-62.38,1.11-97.36,31.97-89.12,140.01,5.57,101.37-36.76,117.32-64.61,155.19-13.66,18.58-34.01,65.59-32.41,118,3.51-1.44,8.28-2.41,14.86-2.7,36.48-1.58,40.94,35.93,83.55,91.9ZM323.37,69.66s-60.14,11.78-81.87,38.6c0,0,14.07-49.08,81.87-38.6ZM181.98,330.73c33.97-31.27,38.5-74.12,38.5-74.12,8.78,29.91-14.5,76.28-33.4,86.06-13.33,6.91-39.38,35.58-39.38,35.58,0,0,6.35-21.81,34.28-47.53Z"/><path class="i" d="M377.47,593.68c.12-7.54,.32-14.65,.6-21.37-63.97,38.15-116.29,18.95-142.4,3.57,12.75,22.27,13.99,37.1,12.57,45.82,26.8,2.57,80.13,5.67,129.65-3.35-.39-6.95-.57-15.07-.42-24.68Z"/><path class="e" d="M242.09,169.77c1.45-8.56,19.37-16.16,23.25,.55,2.88,12.4,1.86,19.8,.9,23.34,3.78-2.72,7.91-5.03,11.6-6.85,0,0,3.72-45.58-21.34-48.09-25.06-2.51-29.92,41.21-20.18,57.37,3.87,6.42,9.03,8.67,13.85,9.1,1.93-1.35,3.84-2.61,5.65-3.82-13.86-3.28-15.51-23.16-13.72-31.59Z"/><path class="e" d="M319.15,162.53c2.51-3.76,16.29-11.28,21.3,6.68,5,17.92-5.76,30.79-5.81,30.85,3.03,1.73,6.28,3.56,9.99,5.59,2.39,1.31,4.46,2.61,6.28,3.9h0c10.89-8.13,16.69-75.43-19.24-75.43s-32.5,48.15-32.5,48.15h0c5.41,.79,9.98,2.99,17.33,7.23-4.87-14.91,.41-23.61,2.64-26.97Z"/><path class="c" d="M340.46,169.21c-5.01-17.96-18.8-10.44-21.3-6.68-2.24,3.36-7.51,12.06-2.64,26.97,4.61,2.66,10.38,6.14,18.14,10.56,.05-.06,10.81-12.92,5.81-30.85Zm-20.45-1.92s9.68-12.63,18.32,1.67c0,0-8.83-4.81-18.32-1.67Z"/><path class="i" d="M359.24,231.73c-.32,2.23-.88,5.3-1.07,9.49,2.82-4.89,4.61-9.56,4.61-13.38,0-1.99-.55-2.83-1.63-3.36,.04,2.47-.66,4.89-1.92,7.24h0Z"/><path class="k" d="M359.24,231.73c-.32,2.23-.88,5.3-1.07,9.49,2.82-4.89,4.61-9.56,4.61-13.38,0-1.99-.55-2.83-1.63-3.36,.04,2.47-.66,4.89-1.92,7.24h0Z"/><path class="i" d="M240.17,243.75c.95,2.49,2.13,4.87,3.5,7.14,0-1.35-.02-2.38-.04-2.96-1.25-1.33-2.38-2.73-3.45-4.18Z"/><path class="k" d="M240.17,243.75c.95,2.49,2.13,4.87,3.5,7.14,0-1.35-.02-2.38-.04-2.96-1.25-1.33-2.38-2.73-3.45-4.18Z"/><path class="e" d="M282.72,284.46c12.95,8.3,31.75-1.67,49.29-14.2,8.18-5.84,19.79-17.99,26.16-29.03,.18-4.19,.74-7.26,1.07-9.49h0c-5.12,9.54-19.28,18-28.8,24.79-17.55,12.53-34.15,20.5-48.2,14.2-10.16-3.88-27.49-10.95-38.61-22.8,.02,.58,.04,1.61,.04,2.96,9.57,15.9,28.14,26.58,39.06,33.57Z"/><path class="k" d="M282.72,284.46c12.95,8.3,31.75-1.67,49.29-14.2,8.18-5.84,19.79-17.99,26.16-29.03,.18-4.19,.74-7.26,1.07-9.49h0c-5.12,9.54-19.28,18-28.8,24.79-17.55,12.53-34.15,20.5-48.2,14.2-10.16-3.88-27.49-10.95-38.61-22.8,.02,.58,.04,1.61,.04,2.96,9.57,15.9,28.14,26.58,39.06,33.57Z"/><path class="c" d="M265.34,170.32c-3.88-16.71-21.8-9.12-23.25-.55-1.79,8.44-.13,28.32,13.72,31.59,2.68-1.78,5.12-3.43,6.94-5,1.1-.94,2.27-1.84,3.48-2.71,.96-3.54,1.98-10.93-.9-23.34Zm-20.49-.97s9.68-12.63,18.32,1.67c0,0-8.83-4.81-18.32-1.67Z"/><path class="i" d="M419,442.84s-.64,9.61,1.73,20.19c2.4,.77,4.36,1.8,5.62,2.4,12.11,5.85,14.62,17.13,33,12.11,9.58-2.61,18.25-5.43,26.61-6.01h0c9.07-17-37.71-51.25-66.96-28.69Z"/><path class="e" d="M244.85,169.35c9.5-3.14,18.32,1.67,18.32,1.67-8.64-14.3-18.32-1.67-18.32-1.67Z"/><path class="e" d="M320.01,167.29c9.49-3.14,18.32,1.67,18.32,1.67-8.64-14.3-18.32-1.67-18.32-1.67Z"/><path class="h" d="M244.07,235.79l.96-1.26c.24,.18,24.07,18.13,46.15,15.99,22.37-2.16,51.25-14.84,59.8-22.34l1.04,1.19c5.92-4.08,8.93-7.13,8.77-7.68-.99-3.93-4.03-7.99-9.88-12.15-1.82-1.29-3.89-2.59-6.28-3.9-3.7-2.03-6.96-3.86-9.99-5.59-7.76-4.42-13.53-7.9-18.14-10.56-7.35-4.24-11.92-6.44-17.33-7.22-3.02-.44-6.3-.45-10.52-.12,0,0-4.8,1.67-10.83,4.64-3.69,1.82-7.82,4.13-11.6,6.85-1.2,.86-2.37,1.76-3.48,2.71-1.82,1.56-4.27,3.22-6.94,5-1.81,1.21-3.72,2.47-5.65,3.82-8.17,5.71-16.4,12.83-16.33,22.67,.04,.05,3.88,3.59,10.24,7.94Z"/><path class="d" d="M282.24,270.73c14.05,6.3,30.65-1.67,48.2-14.2,9.51-6.8,23.67-15.26,28.8-24.79,1.26-2.35,1.96-4.77,1.92-7.24-.02-.92-.11-1.85-.35-2.79,.16,.54-2.85,3.59-8.77,7.68l1.06,1.21c-8.76,7.68-37.8,20.82-61.6,23.11-1.36,.13-2.72,.19-4.08,.19-21.95,0-43.35-16.1-44.3-16.83l.97-1.28c-6.36-4.35-10.2-7.88-10.24-7.94h0s.01,.08,.01,.12c.02,.89,.11,1.84,.27,2.84,.22,1.29,.57,2.61,1.08,3.99,1.21,3.23,2.94,6.19,4.98,8.95,1.07,1.45,2.21,2.85,3.45,4.18,11.13,11.85,28.46,18.92,38.61,22.8Z"/><path class="h" d="M235.66,575.88c-3.8-6.64-8.58-13.91-14.68-21.92-42.61-55.98-47.07-93.48-83.55-91.9-6.58,.28-11.36,1.26-14.86,2.7-15.61,6.42-5.82,22.23-16.05,29.05-5.84,3.89-13.48,4.89-21.09,6.44,0,0-23.19,12.77-10.34,35.05,12.86,22.27,11.96,22.43,7.48,57.29-4.49,34.85,165.65,29.12,165.65,29.12h0c1.42-8.72,.18-23.55-12.57-45.82Zm-92.19-103.71c22.86,8.53,28.1,28.08,28.1,28.08,0,0-36.13-38.24-49.1-5.34,0,0-1.86-31.28,21-22.74Z"/><path class="d" d="M82.58,592.58c4.49-34.85,5.38-35.02-7.48-57.29-12.86-22.27,10.34-35.05,10.34-35.05-8.72,1.78-17.39,4.29-23.19,12.77-10.86,15.87-5.01,30.91,0,49.29,5.01,18.38-6.27,20.89-12.11,33-4.01,8.32-26.38,46.5,128.25,48.88,63.5,.97,64.12-11.76,66-12.53,0,0,2.73-3.1,3.85-9.96h0s-170.14,5.73-165.65-29.12Z"/><path class="h" d="M443.31,627.88c38.94-29.27,119.53-63.4,89.61-101.95-1.95-.81-3.7-2.05-5.07-4.11-8.19-12.28-3.59-32.55-18.33-43.58-.3-.23-.57-.48-.89-.7-6.25-4.28-12.37-5.94-18.62-6.11-1.35-.04-2.71,0-4.07,.09-8.36,.58-17.03,3.4-26.61,6.01-18.38,5.01-20.89-6.27-33-12.11-1.26-.61-3.21-1.63-5.62-2.4-12.42-3.98-37.07-1.06-42.36,102.68-.11,2.16-.21,4.36-.31,6.6-.28,6.72-.48,13.83-.6,21.37-.15,9.61,.03,17.73,.42,24.68,.69,12.29,2.08,20.81,3.69,26.72,6.65,2.31,29.29,7.2,61.74-17.19Zm-28.07-147.18c19.55-3.74,26.43,15.7,26.43,15.7,0,0-30.26-22.44-47.25,40.38,0,0,1.28-52.35,20.83-56.09Z"/><path class="d" d="M532.92,525.93c29.92,38.55-50.67,72.68-89.61,101.95-32.45,24.39-55.09,19.5-61.74,17.19,3.49,12.82,7.98,13.52,8.42,14.61,0,0,21.72,19.22,77.7-23.39,14-10.66,26.85-18.93,38.21-25.91,34.08-20.93,54.87-30.28,53.69-57.64-1.3-30-16.75-22.71-26.68-26.81Z"/><path class="j" d="M323.37,69.66c-67.8-10.47-81.87,38.6-81.87,38.6,21.73-26.82,81.87-38.6,81.87-38.6Z"/><path class="j" d="M187.08,342.68c18.89-9.79,42.18-56.15,33.4-86.06,0,0-4.52,42.84-38.5,74.12-27.93,25.71-34.28,47.53-34.28,47.53,0,0,26.05-28.67,39.38-35.58Z"/><path class="g" d="M441.66,496.41s-6.87-19.44-26.43-15.7c-19.55,3.74-20.83,56.09-20.83,56.09,17-62.82,47.25-40.38,47.25-40.38Z"/><path class="g" d="M171.56,500.25s-5.23-19.54-28.1-28.08c-22.86-8.53-21,22.74-21,22.74,12.97-32.9,49.1,5.34,49.1,5.34Z"/><path class="i" d="M291.18,250.53c-22.08,2.14-45.91-15.81-46.15-15.99l-.96,1.26-.97,1.28c.95,.73,22.35,16.83,44.3,16.83,1.36,0,2.72-.06,4.08-.19,23.8-2.29,52.84-15.43,61.6-23.11l-1.06-1.21-1.04-1.19c-8.55,7.5-37.43,20.18-59.8,22.34Z"/><path class="e" d="M479.99,445.76c-6.97-6.29-15.67-11.01-24.88-13.44,.17-9.51-.08-58.56-21.9-82.66,0,0,19.91,56.63,9.01,80.88-3.94-.05-7.87,.37-11.71,1.33-.92-21.31-7.79-51.76-31.55-88.45-37.26-57.53-41.43-87.12-40.77-102.19-6.36,11.04-17.98,23.19-26.16,29.03-17.55,12.53-36.35,22.5-49.29,14.2-10.92-6.99-29.49-17.67-39.06-33.57,.01,11.03-1.6,45.79-21.01,74.94-23.39,35.14-47.62,98.63-40.1,126.21,0,0-22.56-12.53-17.55-58.48,0,0-20.05,33.32,7.52,65.96,8.31,9.83,18.39,18.51,28.45,26.47,3.62,2.86,7.24,5.64,10.78,8.33,15.76,12,29.84,22.52,34.94,33.23,1.13,2.38,1.84,4.78,2,7.2,1.53,22.56-20.2,18.38-27.72,19.22,6.09,8.01,10.87,15.28,14.68,21.92,26.11,15.38,78.43,34.58,142.4-3.57,.09-2.24,.2-4.44,.31-6.6,5.29-103.75,29.93-106.67,42.36-102.68-2.37-10.57-1.73-20.19-1.73-20.19,29.24-22.56,76.03,11.7,66.96,28.69,1.36-.1,2.72-.13,4.07-.09h.01s7.08-10.22-10.04-25.68Z"/><path class="f" d="M287.18,192.08c12.42,.93,10.28,45.4,5.32,47.28-11.9,4.53-54.16-13.14-46.98-20.28,5.37-5.34,32.65-27.67,41.65-27Z"/></g></g></g></svg>