<svg width="800" height="600" viewBox="0 0 800 600" fill="none" xmlns="http://www.w3.org/2000/svg">
  <rect width="800" height="600" fill="#f0fdf4"/>
  <rect x="50" y="50" width="700" height="500" rx="20" fill="#84cc16" opacity="0.1"/>
  <rect x="100" y="100" width="600" height="400" rx="15" fill="#ffffff" stroke="#84cc16" stroke-width="2"/>
  
  <!-- Code Editor Mockup -->
  <rect x="120" y="120" width="560" height="50" rx="8" fill="#1e293b"/>
  <rect x="130" y="135" width="20" height="20" rx="4" fill="#84cc16"/>
  <rect x="160" y="135" width="20" height="20" rx="4" fill="#22c55e"/>
  <rect x="190" y="135" width="20" height="20" rx="4" fill="#ef4444"/>
  
  <!-- Code Lines -->
  <rect x="120" y="190" width="200" height="4" rx="2" fill="#84cc16"/>
  <rect x="120" y="210" width="300" height="4" rx="2" fill="#22c55e"/>
  <rect x="120" y="230" width="250" height="4" rx="2" fill="#84cc16"/>
  <rect x="120" y="250" width="180" height="4" rx="2" fill="#22c55e"/>
  
  <!-- Browser Window -->
  <rect x="350" y="190" width="300" height="200" rx="8" fill="#ffffff" stroke="#e2e8f0" stroke-width="2"/>
  <rect x="350" y="190" width="300" height="30" rx="8" fill="#f1f5f9"/>
  <circle cx="365" cy="205" r="6" fill="#ef4444"/>
  <circle cx="385" cy="205" r="6" fill="#f59e0b"/>
  <circle cx="405" cy="205" r="6" fill="#22c55e"/>
  
  <!-- Web App Mockup -->
  <rect x="370" y="240" width="260" height="120" rx="4" fill="#f8fafc"/>
  <rect x="380" y="250" width="80" height="20" rx="4" fill="#84cc16"/>
  <rect x="380" y="280" width="120" height="8" rx="2" fill="#64748b"/>
  <rect x="380" y="300" width="100" height="8" rx="2" fill="#64748b"/>
  <rect x="380" y="320" width="60" height="20" rx="4" fill="#84cc16"/>
  
  <!-- Mobile App Mockup -->
  <rect x="500" y="280" width="100" height="160" rx="20" fill="#1e293b"/>
  <rect x="510" y="300" width="80" height="120" rx="8" fill="#ffffff"/>
  <rect x="520" y="310" width="60" height="8" rx="2" fill="#84cc16"/>
  <rect x="520" y="330" width="50" height="6" rx="2" fill="#64748b"/>
  <rect x="520" y="350" width="40" height="6" rx="2" fill="#64748b"/>
  <rect x="520" y="370" width="30" height="20" rx="4" fill="#84cc16"/>
  
  <!-- Database Icon -->
  <ellipse cx="200" cy="350" rx="40" ry="15" fill="#84cc16"/>
  <rect x="160" y="350" width="80" height="60" fill="#84cc16"/>
  <ellipse cx="200" cy="410" rx="40" ry="15" fill="#84cc16"/>
  
  <!-- Cloud Icon -->
  <ellipse cx="600" cy="350" rx="50" ry="20" fill="#22c55e"/>
  <ellipse cx="580" cy="360" rx="30" ry="15" fill="#22c55e"/>
  <ellipse cx="620" cy="360" rx="30" ry="15" fill="#22c55e"/>
  
  <!-- Text -->
  <text x="400" y="550" text-anchor="middle" font-family="Arial, sans-serif" font-size="24" font-weight="bold" fill="#84cc16">Custom Software Development</text>
</svg>
